<?xml version="1.0" encoding="utf-8"?>
<!-- Generator: Adobe Illustrator 26.2.1, SVG Export Plug-In . SVG Version: 6.00 Build 0)  -->
<svg version="1.1" id="Capa_1" xmlns="http://www.w3.org/2000/svg" xmlns:xlink="http://www.w3.org/1999/xlink" x="0px" y="0px"
	 viewBox="0 0 1920 97.5" style="enable-background:new 0 0 1920 97.5;" xml:space="preserve">
<style type="text/css">
	.st0{clip-path:url(#SVGID_00000154397892361783929540000001577513875189489043_);}
	.st1{fill:#751132;}
	.st2{fill:#BC1D50;}
	.st3{clip-path:url(#SVGID_00000013903071816903508580000003920707765141491379_);}
	.st4{clip-path:url(#SVGID_00000085948462673351310990000014314667875550872212_);}
	.st5{opacity:0.56;}
	.st6{clip-path:url(#SVGID_00000130643083088304509400000002867283122477237945_);}
	.st7{fill:#C58ACF;}
</style>
<g>
	<g id="Grupo_16">
		<g>
			<defs>
				<rect id="SVGID_1_" width="1920" height="118"/>
			</defs>
			<clipPath id="SVGID_00000115506816257348469220000000642817391260956053_">
				<use xlink:href="#SVGID_1_"  style="overflow:visible;"/>
			</clipPath>
			<g id="Grupo_15" style="clip-path:url(#SVGID_00000115506816257348469220000000642817391260956053_);">
				<path id="Trazado_31" class="st1" d="M2003.2,1.27c0,0-122.42,58.61-371.91,80.47c-83.49,7.32-248.29,15.19-333.52,11.22
					c-122.06-6.15-186.45-8.79-298.64-26.33c-114.04-17.83-242.58-33.98-367.8-38.18C380.44,20.07,152.15,48.57,0,87.45V0.17h2003.2
					V1.27z"/>
				<path id="Trazado_32" class="st2" d="M961,61.08c96.08,13.93,240.24,24.15,398.68,21.14c79.07-1.5,160.25-7.29,232.26-13.68
					c70.85-6.29,111.51-7.23,188.59-9.43c53.82-1.42,157.89,1.4,210.62,4.02C2148.7,70.96,2226,91.96,2226,91.96
					s-96.76-15.51-196.19-19.6c-108.72-4.48-235.77-4.87-327.26,3.23c-138.01,12.21-200.63,19.91-369.36,18.81
					C1084.52,92.78,998.63,67.67,961,61.08"/>
			</g>
		</g>
	</g>
	<g id="Grupo_14">
		<g>
			<defs>
				<rect id="SVGID_00000013888171859517037790000014644109786127219620_" width="1920" height="97.5"/>
			</defs>
			<clipPath id="SVGID_00000150807099838102786100000004461862415702796201_">
				<use xlink:href="#SVGID_00000013888171859517037790000014644109786127219620_"  style="overflow:visible;"/>
			</clipPath>
			<g id="Grupo_13" style="clip-path:url(#SVGID_00000150807099838102786100000004461862415702796201_);">
				<g id="Grupo_12">
					<g>
						<defs>
							<rect id="SVGID_00000091724934179094236360000006191042666076992902_" width="1920" height="97.5"/>
						</defs>
						<clipPath id="SVGID_00000088831658903172757370000006225073982094653102_">
							<use xlink:href="#SVGID_00000091724934179094236360000006191042666076992902_"  style="overflow:visible;"/>
						</clipPath>
						<g id="Grupo_11" style="clip-path:url(#SVGID_00000088831658903172757370000006225073982094653102_);">
							<g id="Grupo_10" class="st5">
								<g id="Grupo_9">
									<g>
										<defs>
											<rect id="SVGID_00000141420766880906542990000003832781003802480259_" width="1920" height="97.5"/>
										</defs>
										<clipPath id="SVGID_00000052825643614667502830000003709824070044131774_">
											<use xlink:href="#SVGID_00000141420766880906542990000003832781003802480259_"  style="overflow:visible;"/>
										</clipPath>
										<g id="Grupo_8" style="clip-path:url(#SVGID_00000052825643614667502830000003709824070044131774_);">
											<path id="Trazado_30" class="st7" d="M0,1.15c0,0,117.33,60.87,356.46,83.58c80.02,7.6,237.98,15.78,319.67,11.66
												c116.98-6.39,178.7-9.13,286.24-27.35c109.3-18.52,232.5-35.3,352.52-39.65c240.46-8.72,459.28,20.88,605.1,61.27V0H0
												V1.15z"/>
										</g>
									</g>
								</g>
							</g>
						</g>
					</g>
				</g>
			</g>
		</g>
	</g>
</g>
</svg>
