<?xml version="1.0" encoding="UTF-8"?><svg id="a" xmlns="http://www.w3.org/2000/svg" xmlns:xlink="http://www.w3.org/1999/xlink" viewBox="0 0 1366.77 610.22"><defs><style>.l{fill:#fff;}.m{fill:#751132;}.n{fill:none;}.o{fill:#743d8f;opacity:.7;}.p{fill:#d79dd7;}.q{clip-path:url(#k);}.r{opacity:.56;}</style><clipPath id="k"><path class="n" d="M1366.01,122.24l-.26,384.66c-.08,.03-.17,.06-.26,.1-.04,.01-.1,.03-.16,.06-1.06,.45-2.77,1.31-5.05,2.11-5.78,2.02-15.31,5.27-27.75,9.21-19.33,6-46.19,13.64-78.82,21.13-32.14,7.39-69.89,14.64-111.54,20.06-117,15.21-262.23,6.71-361.52-12.01-35.34-6.66-66.98-12.91-98.66-18.43-78.18-13.61-156.57-22.75-291.27-22.56-131.21,.19-217.62,15.39-276.43,32.88-58.58,17.44-89.05,36.39-109.84,45.83-1.99,.89-4.45,2-4.45,2V122.66s.13-.05,.65-.24c6.53-2.44,48.28-17.62,112.03-32.27,32.15-7.39,69.9-14.64,111.55-20.06,117-15.21,262.23-6.71,361.52,12.01,35.34,6.66,66.98,12.91,98.66,18.43,78.18,13.61,156.57,22.75,291.26,22.56,131.21-.19,217.61-15.38,276.42-32.89,59.43-17.67,91.51-37.66,111.39-46.5,.73-.33,1.8-.88,2.53-1.2V122.24Z"/></clipPath></defs><path id="b" class="m" d="M1365.75,124.28s-71.82-49.67-249.33-65.22c-59.4-5.2-188.69-10.45-249.33-7.63-86.85,4.38-135.92,13.86-215.74,26.34-81.14,12.68-172.6,24.18-261.69,27.16C211.15,110.9,46.67,81.95,0,58.38v73.53l1365.75,.33v-7.97Z"/><path class="l" d="M1029.06,53.36c-12.91,11.72-28.81,22.12-46.71,31.06-61.69,30.58-148.79,36.49-238.63,20.72-8.87-1.31-18.74-3.53-27.62-5.23-5.99-1.07-21.19-4.83-27.36-6.24-21.05-4.94-50.64-14-71.33-20.41C426.03,12.13,221.67,21.61,60.44,64.48c-20.24,5.41-40.05,11.27-58.64,18.15C80.92,53.5,173.9,35.15,273.16,29.2c102.37-6.1,214.38,4.14,318.93,33.88,23.87,6.92,55.33,17.43,79.54,23.77,10.33,3.02,25.27,6.43,35.93,8.96,5.34,1.34,12.75,2.63,18.18,3.77,6.07,1.21,12.13,2.5,18.24,3.4,87.23,15.42,172.3,10.69,233.81-17.99,19.52-8.94,36.71-19.64,50.62-31.82"/><g id="c" class="r"><g id="d"><g id="e"><path class="p" d="M1362.82,43.98c-41.6,18.83-124.89,79.16-387.14,79.54-189.28,.27-267.38-17.9-389.93-41-99.29-18.71-244.52-27.21-361.52-12C93.47,87.53,1.43,122.12,0,122.66c1.02-.98,34.36-31.55,189.63-62.11,56.27-11.07,86.19-16.15,196.12-18.69,82.22-.8,140,2.24,272,25.8,77.77,16.65,186.61,27.64,272,31.56,169.66,7.78,315.78-4.25,433.07-55.24Z"/></g></g></g><path id="f" class="m" d="M.25,502.09s71.82,49.67,249.33,65.22c59.4,5.2,188.69,10.45,249.33,7.63,86.85-4.38,135.92-13.86,215.74-26.34,81.14-12.68,172.6-24.18,261.69-27.16,178.51-5.97,342.99,23.02,389.66,46.58v-73.56L.25,494.12v7.97Z"/><path class="l" d="M1365.76,517.84c-11.39,11.86-26.97,22.47-45.26,31.6-52.97,26.23-130.69,34.33-212.57,25.67-8.06-.66-17.1-1.99-25.2-2.96-5.46-.59-19.4-2.9-25.05-3.75-19.28-2.99-46.55-8.85-65.64-13-176.59-39.81-359.29-24.25-500.64,15.53-17.74,5.01-35.07,10.37-51.21,16.46,68.73-25.81,150.75-43.8,239.38-52.4,91.41-8.85,192.76-5.38,288.95,13.53,21.97,4.42,51.04,11.32,73.26,15.28,9.51,1.93,23.19,3.98,32.96,5.52,4.9,.83,11.65,1.53,16.61,2.2,5.54,.7,11.08,1.46,16.64,1.91,79.51,8.49,155.5,1.39,208.46-23.36,20.08-9.23,36.98-20.27,49.29-32.71"/><g id="g" class="r"><g id="h"><g id="i"><path id="j" class="p" d="M0,587.27c117.78-52.08,264.67-64.25,435.75-56.41,85.39,3.92,194.23,14.91,272,31.56,132,23.56,189.78,26.59,272,25.8,109.93-2.55,139.85-7.62,196.12-18.69,157.74-31.04,190.14-62.81,190.14-62.81,0,0-92.95,35.71-224.74,52.85-117,15.21-262.23,6.71-361.52-12-122.55-23.1-200.65-41.26-389.93-40.99C121.28,506.96,40.64,570.09,0,587.27"/></g></g></g><g class="q"><image transform="translate(.27)" xlink:href="contacto.png"/></g><path class="o" d="M1366.01,122.24V506.72c-.08,.03-.43,.24-.52,.28-.04,.01-.1,.03-.16,.06-1.06,.45-2.77,1.31-5.05,2.11-5.78,2.02-15.31,5.27-27.75,9.21-19.33,6-46.19,13.64-78.82,21.13-32.14,7.39-69.89,14.64-111.54,20.06-117,15.21-262.23,6.71-361.52-12.01-35.34-6.66-66.98-12.91-98.66-18.43-78.18-13.61-156.57-22.75-291.27-22.56-131.21,.19-217.62,15.39-276.43,32.88-58.58,17.44-89.05,36.39-109.84,45.83-1.99,.89-4.45,2-4.45,2V122.66s.13-.05,.65-.24c6.53-2.44,48.28-17.62,112.03-32.27,32.15-7.39,69.9-14.64,111.55-20.06,117-15.21,262.23-6.71,361.52,12.01,35.34,6.66,66.98,12.91,98.66,18.43,78.18,13.61,156.57,22.75,291.26,22.56,131.21-.19,217.61-15.38,276.42-32.89,59.43-17.67,91.51-37.66,111.39-46.5,.73-.33,1.8-.88,2.53-1.2V122.24Z"/></svg>