<?xml version="1.0" encoding="utf-8"?>
<!-- Generator: Adobe Illustrator 26.2.1, SVG Export Plug-In . SVG Version: 6.00 Build 0)  -->
<svg version="1.1" id="Capa_1" xmlns="http://www.w3.org/2000/svg" xmlns:xlink="http://www.w3.org/1999/xlink" x="0px" y="0px"
	 viewBox="0 0 188.74 188.74" style="enable-background:new 0 0 188.74 188.74;" xml:space="preserve">
<style type="text/css">
	.st0{fill:#CC3362;}
	.st1{fill:#FFFFFF;}
	.st2{fill:#8331A7;}
	.st3{fill:#8A1E41;}
	.st4{fill:#D79DD7;}
</style>
<g>
	<circle class="st3" cx="94.37" cy="94.37" r="94.37"/>
	<g>
		<g>
			<path class="st1" d="M151.2,38.39H37.54c-6.34,0-11.49,5.16-11.49,11.5v77.03c0,6.33,5.15,11.49,11.49,11.49h42.73
				c-0.67,0.94-1.53,2.12-2.46,3.41c-7.81,10.78-9.05,12.77-9.05,13.62c0,1.68,1.36,3.04,3.03,3.04l44.91,0.37
				c1.66,0,3-1.32,3.04-3.01c0.04-1.32-2.22-4.87-9.65-15.19c-0.59-0.82-1.15-1.59-1.61-2.24h42.72c6.34,0,11.49-5.16,11.49-11.49
				V49.89C162.69,43.55,157.54,38.39,151.2,38.39z M81.23,151.53c2.78-4.52,5.22-8.22,6.89-10.75c0.63-0.96,1.16-1.76,1.55-2.37
				h9.39c0.41,0.63,0.99,1.51,1.68,2.55c1.84,2.79,4.51,6.83,6.78,10.57H81.23z M156.61,118.22c0,3.2-2.6,5.8-5.8,5.8H37.87
				c-3.16,0-5.74-2.58-5.74-5.74V52.3c0-2.99,2.43-5.41,5.41-5.42H151.2c2.98,0,5.41,2.43,5.41,5.42V118.22z"/>
		</g>
		<g>
			<path class="st1" d="M82.58,108.28c0.7,0.46,1.62,0.44,2.3-0.06c0.68-0.49,1-1.35,0.79-2.17l-3.14-12.12
				c-0.07-0.25-0.17-0.48-0.32-0.68l-27.26-37.9c-1.38-1.92-4.08-2.36-6-0.97l-3.68,2.65c-1.93,1.39-2.37,4.08-0.99,6l27.27,37.9
				c0.14,0.2,0.33,0.38,0.54,0.51L82.58,108.28z M80.39,101.99l-4.14-2.7l2.9-2.09L80.39,101.99z M47.64,60.34l3.99-2.6l1.79,2.48
				l-3.97,2.86L47.64,60.34z M55.8,63.54l21.54,29.95L73.3,96.4L51.76,66.45L55.8,63.54z"/>
		</g>
		<g>
			<path class="st1" d="M91.16,116.23h48.82c1.13,0,2.04-0.91,2.04-2.04V54.34c0-0.86-0.54-1.64-1.36-1.92
				c-0.82-0.29-1.72-0.04-2.27,0.63L89.58,112.9c-0.5,0.61-0.6,1.46-0.26,2.17C89.65,115.78,90.37,116.23,91.16,116.23L91.16,116.23
				z M99.62,107.05l0.85,0.74c0.39,0.34,0.87,0.5,1.34,0.5c0.57,0,1.14-0.23,1.54-0.7c0.74-0.85,0.65-2.14-0.2-2.88l-0.95-0.83
				l4.98-6.1l0.86,0.76c0.39,0.34,0.87,0.5,1.34,0.5c0.57,0,1.13-0.24,1.54-0.7c0.74-0.85,0.65-2.14-0.2-2.88l-0.96-0.85l4.98-6.1
				l0.88,0.77c0.39,0.34,0.87,0.5,1.34,0.5c0.57,0,1.13-0.24,1.54-0.7c0.74-0.85,0.65-2.14-0.2-2.89l-0.97-0.85l4.98-6.1l0.88,0.77
				c0.39,0.34,0.87,0.5,1.34,0.5c0.57,0,1.14-0.23,1.54-0.7c0.74-0.85,0.65-2.14-0.2-2.88l-0.99-0.86l4.98-6.1l0.9,0.78
				c0.39,0.34,0.86,0.5,1.34,0.5c0.57,0,1.14-0.24,1.54-0.7c0.74-0.85,0.65-2.14-0.2-2.88l-1-0.87l5.51-6.75v52.09l-42.49,0
				L99.62,107.05z"/>
		</g>
		<g>
			<path class="st1" d="M131.39,78.46c-0.81-0.29-1.72-0.03-2.27,0.63l-20.02,24.54c-0.5,0.61-0.6,1.45-0.26,2.16
				c0.34,0.71,1.06,1.17,1.84,1.17h20.01c1.13,0,2.04-0.91,2.04-2.04V80.39C132.75,79.52,132.21,78.75,131.39,78.46L131.39,78.46z
				 M128.67,102.88h-13.68l13.68-16.76V102.88z"/>
		</g>
		<g>
			<path class="st1" d="M85.19,116.23h-7.33c-1.1,0-2.01-0.9-2.01-2.01v-0.05c0-1.1,0.9-2.01,2.01-2.01h7.33
				c1.1,0,2.01,0.9,2.01,2.01v0.05C87.2,115.33,86.29,116.23,85.19,116.23z"/>
		</g>
		<g>
			<path class="st1" d="M131.17,55.61h-7.33c-1.1,0-2.01-0.9-2.01-2.01v-0.05c0-1.1,0.9-2.01,2.01-2.01h7.33
				c1.1,0,2.01,0.9,2.01,2.01v0.05C133.18,54.71,132.27,55.61,131.17,55.61z"/>
		</g>
		<g>
			<path class="st1" d="M117.99,55.61h-7.33c-1.1,0-2.01-0.9-2.01-2.01v-0.05c0-1.1,0.9-2.01,2.01-2.01h7.33
				c1.1,0,2.01,0.9,2.01,2.01v0.05C120,54.71,119.09,55.61,117.99,55.61z"/>
		</g>
		<g>
			<path class="st1" d="M102.9,55.61h-7.33c-1.1,0-2.01-0.9-2.01-2.01v-0.05c0-1.1,0.9-2.01,2.01-2.01h7.33
				c1.1,0,2.01,0.9,2.01,2.01v0.05C104.91,54.71,104,55.61,102.9,55.61z"/>
		</g>
	</g>
</g>
</svg>
