<?xml version="1.0" encoding="utf-8"?>
<!-- Generator: Adobe Illustrator 26.2.1, SVG Export Plug-In . SVG Version: 6.00 Build 0)  -->
<svg version="1.1" id="Capa_1" xmlns="http://www.w3.org/2000/svg" xmlns:xlink="http://www.w3.org/1999/xlink" x="0px" y="0px"
	 viewBox="0 0 188.74 188.74" style="enable-background:new 0 0 188.74 188.74;" xml:space="preserve">
<style type="text/css">
	.st0{fill:#CC3362;}
	.st1{fill:#FFFFFF;}
	.st2{fill:#8331A7;}
	.st3{fill:#8A1E41;}
	.st4{fill:#D79DD7;}
</style>
<circle class="st0" cx="94.37" cy="94.37" r="94.37"/>
<path class="st1" d="M167.43,62.65h-11.75l-51.78-30.5c-0.63-6.35,1.91-13.98-3.18-13.98c-7.94,0.63-15.88-1.91-15.88,3.18v10.8
	l-51.78,30.5H21.3c-1.91,0-3.18,1.27-3.18,3.18v12.71c0,1.91,1.27,3.18,3.18,3.18h12.71c1.91,0,3.18-1.27,3.18-3.18v-10.8
	l51.78-30.5h1.91C74.67,76.3,75.31,74.4,75.31,75.35v85.77c0,5.4,4.13,9.53,9.53,9.53h19.06c5.4,0,9.53-4.13,9.53-9.53V75.35
	c0-0.32,0-0.63-0.32-0.95c-22.24-53.37-12.39-29.23-15.25-36.85h1.91l51.78,30.18v10.8c0,1.91,1.27,3.18,3.18,3.18h12.71
	c1.91,0,3.18-1.27,3.18-3.18V65.82C170.61,64.23,169.34,62.65,167.43,62.65L167.43,62.65z M81.66,145.24V78.53h9.53v66.71
	L81.66,145.24z M97.55,78.53h9.53v66.71h-9.53V78.53z M105.49,72.18H83.25l4.13-9.53h14.3L105.49,72.18z M103.9,164.3H84.84
	c-5.08,0-2.54-7.31-3.18-12.71h25.41C106.44,156.99,108.98,164.3,103.9,164.3L103.9,164.3z M89.92,56.29l4.45-10.8l4.45,10.8H89.92z
	 M91.19,24.53h6.35v6.35h-6.35V24.53z M30.84,75.35h-6.35V69h6.35V75.35z M164.26,75.35h-6.35V69h6.35V75.35z"/>
</svg>
