<?xml version="1.0" encoding="utf-8"?>
<!-- Generator: Adobe Illustrator 26.2.1, SVG Export Plug-In . SVG Version: 6.00 Build 0)  -->
<svg version="1.1" id="Capa_1" xmlns="http://www.w3.org/2000/svg" xmlns:xlink="http://www.w3.org/1999/xlink" x="0px" y="0px"
	 viewBox="0 0 1265 133.71" style="enable-background:new 0 0 1265 133.71;" xml:space="preserve">
<style type="text/css">
	.st0{fill:#CC3362;}
	.st1{opacity:0.56;fill:#D79DD7;}
</style>
<g>
	<path class="st0" d="M1013.04,0c-9.1,14.39-21.49,26.41-34.66,37.08C910.53,90.78,819.1,101.65,735.26,94.7
		c-33.94-2.91-67.61-8.62-100.72-16.52c-32.85-7.87-66.03-14.09-99.59-17.88c-89.33-9.75-192.81-3.52-265.18,55.41
		c-6.45,5.45-12.66,11.28-17.82,18c4.9-6.93,10.91-13.02,17.16-18.75c72.36-62.36,175.17-70.15,266.53-61.08
		C603.31,59.96,668.1,82.94,735.84,88c66.7,5.95,136.29,1.25,197.86-26.9C964.06,46.99,993.18,27.4,1013.04,0L1013.04,0z"/>
</g>
<path class="st1" d="M0,26.64c129.09,55.81,240.29,74.92,398.72,67.66c79.08-3.63,161.76-22.32,233.78-37.74
	c70.85-15.17,109.99-22.12,187.06-27.44c53.82-3.43,157.9,3.28,210.62,9.71C1152.8,53.79,1265,101.18,1265,101.18
	s-74.15-31.45-196.19-47.32c-108.35-14.09-237.4-14.63-329.35,2.7c-113.49,21.39-192,50.75-367.28,50.5
	C123.49,106.71,37.63,42.55,0,26.64"/>
</svg>
