<?xml version="1.0" encoding="utf-8"?>
<!-- Generator: Adobe Illustrator 26.2.1, SVG Export Plug-In . SVG Version: 6.00 Build 0)  -->
<svg version="1.1" id="Capa_1" xmlns="http://www.w3.org/2000/svg" xmlns:xlink="http://www.w3.org/1999/xlink" x="0px" y="0px"
	 viewBox="0 0 231.55 231.55" style="enable-background:new 0 0 231.55 231.55;" xml:space="preserve">
<style type="text/css">
	.st0{fill:#CC3362;}
	.st1{fill:#FFFFFF;}
</style>
<circle class="st0" cx="115.78" cy="115.78" r="115.78"/>
<path class="st1" d="M144.17,125.92c1.52-0.28,3.03-0.48,4.52-0.56c17.82-0.95,40.72,6.31,53.91,19.37
	c-12.12-11.68-21.71-28.95-51.78-31.02c-2.33-0.16-4.53-0.15-6.65-0.05c0-4.48,0-8.82,0-8.82V61.83c0-2.07,1.4-3.52,3.39-3.52h11.57
	c4.59,0,6.78-2.27,7.58-4.14l4.79-10.75h-37.32c-2.39,0-4.19,1.86-4.39,4.14v68.75c-8.02,2.62-15.26,6.74-23.63,10.77l-11.16-75.8
	c-0.6-3.93-1.6-7.86-7.58-7.86h-7.78l-13.49,92.31c-3.29-0.59-6.64-1.58-10.09-3.03c-7.19-2.81-11.41-4.27-27.12-15.67
	c11.27,8.19,15.47,20.46,32.24,25.78c1.11,0.35,2.39,0.71,3.78,1.07l-6.47,44.27h15.77l5.24-41.59c4.01,0.43,7.79,0.52,10.59,0.01
	c1.41-0.28,2.72-0.55,3.96-0.83l5.35,42.4h15.76l-6.93-47.1c2.26-1,4.69-2.16,7.54-3.56c4.4-2.17,9.15-4.65,14.03-6.8v57.46h31.93
	c4.59,0,6.78-2.07,7.78-3.93c0.6-1.25,2.99-7.04,4.59-10.75h-29.93V125.92z M80.87,135.85l5.97-47.35l5.6,44.37
	C88.49,134.24,84.66,135.26,80.87,135.85z"/>
</svg>
