<?xml version="1.0" encoding="utf-8"?>
<!-- Generator: Adobe Illustrator 26.2.1, SVG Export Plug-In . SVG Version: 6.00 Build 0)  -->
<svg version="1.1" id="Capa_1" xmlns="http://www.w3.org/2000/svg" xmlns:xlink="http://www.w3.org/1999/xlink" x="0px" y="0px"
	 viewBox="0 0 1366.1 74.12" style="enable-background:new 0 0 1366.1 74.12;" xml:space="preserve">
<style type="text/css">
	.st0{clip-path:url(#SVGID_00000175308382601507419790000012274885444205763003_);}
	.st1{clip-path:url(#SVGID_00000056426244602493098000000014921515490893962634_);}
	.st2{fill:#751132;}
	.st3{fill:#BC1D50;}
	.st4{clip-path:url(#SVGID_00000018219571358087730630000003723961776386981548_);}
	.st5{clip-path:url(#SVGID_00000108275157511090696420000001553888554256817050_);}
	.st6{opacity:0.56;}
	.st7{clip-path:url(#SVGID_00000126319541084757401020000011955192840707763637_);}
	.st8{fill:#C58ACF;}
	.st9{clip-path:url(#SVGID_00000175308382601507419790000012274885444205763003_);fill:#FFFFFF;}
</style>
<g>
	<defs>
		<rect id="SVGID_1_" width="1366.1" height="74.12"/>
	</defs>
	<clipPath id="SVGID_00000103230279225334758680000016036684249487175855_">
		<use xlink:href="#SVGID_1_"  style="overflow:visible;"/>
	</clipPath>
	
		<g id="Grupo_122" transform="translate(0 158.625)" style="clip-path:url(#SVGID_00000103230279225334758680000016036684249487175855_);">
		<g id="Grupo_16">
			<g>
				<defs>
					<rect id="SVGID_00000152263264963516431790000008519345372238079623_" y="-168.5" width="1367" height="84"/>
				</defs>
				<clipPath id="SVGID_00000067932396398442729130000000230021773223311544_">
					<use xlink:href="#SVGID_00000152263264963516431790000008519345372238079623_"  style="overflow:visible;"/>
				</clipPath>
				<g id="Grupo_15" style="clip-path:url(#SVGID_00000067932396398442729130000000230021773223311544_);">
					<path id="Trazado_31" class="st2" d="M1425.29-85.41c0,0-87.1-41.7-264.62-57.25c-59.4-5.21-176.66-10.81-237.3-7.99
						c-86.85,4.38-132.66,6.25-212.49,18.74c-81.14,12.69-172.6,24.18-261.69,27.16C270.69-98.78,108.25-119.06,0-146.73v62.11
						h1425.29V-85.41z"/>
					<path id="Trazado_32" class="st3" d="M683.76-127.96c68.36-9.91,170.94-17.18,283.66-15.04c56.26,1.07,114.02,5.19,165.26,9.73
						c50.41,4.47,79.34,5.15,134.18,6.71c38.3,1.01,112.34-1,149.86-2.86c112.1-5.57,167.1-20.51,167.1-20.51
						s-68.84,11.03-139.59,13.95c-77.36,3.19-167.75,3.47-232.85-2.3c-98.2-8.69-142.75-14.17-262.81-13.39
						C771.64-150.52,710.53-132.65,683.76-127.96"/>
				</g>
			</g>
		</g>
		<g id="Grupo_14" transform="translate(0 14.631)">
			<g>
				<defs>
					<rect id="SVGID_00000134928744443306212500000015568771412436559501_" y="-168.5" width="1366.1" height="69.37"/>
				</defs>
				<clipPath id="SVGID_00000167371462080105567290000016676200027099231881_">
					<use xlink:href="#SVGID_00000134928744443306212500000015568771412436559501_"  style="overflow:visible;"/>
				</clipPath>
				<g id="Grupo_13" style="clip-path:url(#SVGID_00000167371462080105567290000016676200027099231881_);">
					<g id="Grupo_12">
						<g>
							<defs>
								<rect id="SVGID_00000099655554452732179920000005214720232251672473_" y="-168.5" width="1366.1" height="69.37"/>
							</defs>
							<clipPath id="SVGID_00000070110686450841460370000004378502558004923541_">
								<use xlink:href="#SVGID_00000099655554452732179920000005214720232251672473_"  style="overflow:visible;"/>
							</clipPath>
							<g id="Grupo_11" style="clip-path:url(#SVGID_00000070110686450841460370000004378502558004923541_);">
								<g id="Grupo_10" class="st6">
									<g id="Grupo_9">
										<g>
											<defs>
												<rect id="SVGID_00000132062761971821365580000013863451337095624123_" y="-168.5" width="1366.1" height="69.37"/>
											</defs>
											<clipPath id="SVGID_00000106130545360996561330000014237861814173686440_">
												<use xlink:href="#SVGID_00000132062761971821365580000013863451337095624123_"  style="overflow:visible;"/>
											</clipPath>
											<g id="Grupo_8" style="clip-path:url(#SVGID_00000106130545360996561330000014237861814173686440_);">
												<path id="Trazado_30" class="st8" d="M0-99.96c0,0,83.48-43.31,253.63-59.47c56.94-5.41,169.32-11.22,227.45-8.3
													c83.24,4.54,127.15,6.5,203.66,19.46c77.77,13.17,165.43,25.12,250.82,28.21c171.09,6.2,326.78-14.86,430.54-43.6v64.51
													H0V-99.96z"/>
											</g>
										</g>
									</g>
								</g>
							</g>
						</g>
					</g>
				</g>
			</g>
		</g>
	</g>
	<path id="Trazado_122" style="clip-path:url(#SVGID_00000103230279225334758680000016036684249487175855_);fill:#FFFFFF;" d="
		M1041.57-28.7c-11.76,22.81-29.13,42.91-49.46,59.56c-44.73,36.38-104.25,48.25-163.48,37.28c-5.87-0.82-12.33-2.54-18.17-3.78
		c-3.95-0.75-13.86-3.76-17.9-4.87c-13.76-3.89-32.89-11.59-46.26-17.07C622.79-10.11,483.59,13.07,370.3,68.88
		c-14.23,6.9-28.07,14.58-41.45,23.01c56.39-35.97,121.1-61.39,188.84-74.08c69.86-13.04,144.64-9.37,212.47,15.46
		c15.47,5.81,35.73,14.93,51.49,20.1c6.7,2.54,16.47,5.19,23.43,7.19c3.48,1.08,8.37,1.97,11.93,2.84c3.99,0.9,7.96,1.88,12.01,2.44
		c57.51,10.76,115.53,0.28,159.96-34.09C1010.64,15.24,1028.99-5.33,1041.57-28.7"/>
</g>
</svg>
