<?xml version="1.0" encoding="utf-8"?>
<!-- Generator: Adobe Illustrator 26.2.1, SVG Export Plug-In . SVG Version: 6.00 Build 0)  -->
<svg version="1.1" id="Capa_1" xmlns="http://www.w3.org/2000/svg" xmlns:xlink="http://www.w3.org/1999/xlink" x="0px" y="0px"
	 viewBox="0 0 1366.1 74.1" style="enable-background:new 0 0 1366.1 74.1;" xml:space="preserve">
<style type="text/css">
	.st0{clip-path:url(#SVGID_00000053520209772053539010000012081901671524490941_);}
	.st1{clip-path:url(#SVGID_00000065787567693537101510000001556504764765829277_);}
	.st2{fill:#751132;}
	.st3{fill:#BC1D50;}
	.st4{clip-path:url(#SVGID_00000062887587286937863490000004042808389569656714_);}
	.st5{clip-path:url(#SVGID_00000081612931352322005630000009378403674648533681_);}
	.st6{opacity:0.56;}
	.st7{clip-path:url(#SVGID_00000183248113508752249260000011714977937470680224_);}
	.st8{fill:#C58ACF;}
	.st9{fill:none;}
	.st10{fill:#FFFFFF;}
</style>
<g>
	<defs>
		<rect id="SVGID_1_" x="-0.5" y="0.1" width="1366.1" height="74"/>
	</defs>
	<clipPath id="SVGID_00000062156824008690923970000017396389701060137405_">
		<use xlink:href="#SVGID_1_"  style="overflow:visible;"/>
	</clipPath>
	<g style="clip-path:url(#SVGID_00000062156824008690923970000017396389701060137405_);">
		<g id="Grupo_122" transform="translate(0 158.625)">
			<g id="Grupo_16">
				<g>
					<g>
						<defs>
							<rect id="SVGID_00000102538679225718564600000005881236626142805900_" x="-0.5" y="-168.4" width="1367" height="84"/>
						</defs>
						<clipPath id="SVGID_00000029763818938585954110000010727586204787735180_">
							<use xlink:href="#SVGID_00000102538679225718564600000005881236626142805900_"  style="overflow:visible;"/>
						</clipPath>
						<g id="Grupo_15" style="clip-path:url(#SVGID_00000029763818938585954110000010727586204787735180_);">
							<path id="Trazado_31" class="st2" d="M1424.8-85.3c0,0-87.1-41.7-264.6-57.2c-59.4-5.2-176.7-10.8-237.3-8
								c-86.8,4.4-132.7,6.2-212.5,18.7c-81.1,12.7-172.6,24.2-261.7,27.2c-178.5,6-340.9-14.3-449.2-42v62.1h1425.3V-85.3z"/>
							<path id="Trazado_32" class="st3" d="M683.3-127.8c68.4-9.9,170.9-17.2,283.7-15c56.3,1.1,114,5.2,165.3,9.7
								c50.4,4.5,79.3,5.1,134.2,6.7c38.3,1,112.3-1,149.9-2.9c112.1-5.6,167.1-20.5,167.1-20.5s-68.8,11-139.6,13.9
								c-77.4,3.2-167.8,3.5-232.8-2.3c-98.2-8.7-142.8-14.2-262.8-13.4C771.2-150.4,710.1-132.5,683.3-127.8"/>
						</g>
					</g>
				</g>
			</g>
			<g id="Grupo_14" transform="translate(0 14.631)">
				<g>
					<g>
						<defs>
							<rect id="SVGID_00000116221650285141941770000007063728415407747458_" x="-0.5" y="-168.4" width="1366.1" height="69.4"/>
						</defs>
						<clipPath id="SVGID_00000116206847418362422840000006129422424990382467_">
							<use xlink:href="#SVGID_00000116221650285141941770000007063728415407747458_"  style="overflow:visible;"/>
						</clipPath>
						<g id="Grupo_13" style="clip-path:url(#SVGID_00000116206847418362422840000006129422424990382467_);">
							<g id="Grupo_12">
								<g>
									<g>
										<defs>
											
												<rect id="SVGID_00000132058019391644774210000010054886489681549468_" x="-0.5" y="-168.4" width="1366.1" height="69.4"/>
										</defs>
										<clipPath id="SVGID_00000052073233061464422090000005687589227465069728_">
											<use xlink:href="#SVGID_00000132058019391644774210000010054886489681549468_"  style="overflow:visible;"/>
										</clipPath>
										<g id="Grupo_11" style="clip-path:url(#SVGID_00000052073233061464422090000005687589227465069728_);">
											<g id="Grupo_10" class="st6">
												<g id="Grupo_9">
													<g>
														<g>
															<defs>
																
																	<rect id="SVGID_00000150782950297909810310000000356710308435081876_" x="-0.5" y="-168.4" width="1366.1" height="69.4"/>
															</defs>
															<clipPath id="SVGID_00000042735648790827408500000015472734273954976945_">
																<use xlink:href="#SVGID_00000150782950297909810310000000356710308435081876_"  style="overflow:visible;"/>
															</clipPath>
															<g id="Grupo_8" style="clip-path:url(#SVGID_00000042735648790827408500000015472734273954976945_);">
																<path id="Trazado_30" class="st8" d="M-0.5-99.8c0,0,83.5-43.3,253.6-59.5c56.9-5.4,169.3-11.2,227.5-8.3
																	c83.2,4.5,127.2,6.5,203.7,19.5c77.8,13.2,165.4,25.1,250.8,28.2c171.1,6.2,326.8-14.9,430.5-43.6V-99H-0.5V-99.8z"
																	/>
															</g>
														</g>
													</g>
												</g>
											</g>
										</g>
									</g>
								</g>
							</g>
						</g>
					</g>
				</g>
			</g>
		</g>
		<rect x="-0.5" y="0.1" class="st9" width="1366.1" height="74.1"/>
		<path id="Trazado_122" class="st10" d="M1041.1-28.6C1029.4-5.8,1012,14.3,991.7,31c-44.7,36.4-104.2,48.2-163.5,37.3
			c-5.9-0.8-12.3-2.5-18.2-3.8c-4-0.8-13.9-3.8-17.9-4.9c-13.8-3.9-32.9-11.6-46.3-17.1C622.3-10,483.1,13.2,369.8,69
			c-14.2,6.9-28.1,14.6-41.5,23c56.4-36,121.1-61.4,188.8-74.1c69.9-13,144.6-9.4,212.5,15.5c15.5,5.8,35.7,14.9,51.5,20.1
			c6.7,2.5,16.5,5.2,23.4,7.2c3.5,1.1,8.4,2,11.9,2.8c4,0.9,8,1.9,12,2.4c57.5,10.8,115.5,0.3,160-34.1
			C1010.2,15.4,1028.5-5.2,1041.1-28.6"/>
	</g>
</g>
</svg>
