<?xml version="1.0" encoding="UTF-8"?><svg id="a" xmlns="http://www.w3.org/2000/svg" viewBox="0 0 200 200"><defs><style>.b{fill:#fff;}.c{fill:#8331a7;}</style></defs><circle class="c" cx="100" cy="100" r="100"/><path class="b" d="M147.42,45.75H52.58c-11.65,0-21.13,9.48-21.13,21.13v66.25c0,11.65,9.48,21.13,21.13,21.13h94.84c11.66,0,21.13-9.48,21.13-21.13V66.88c0-11.65-9.47-21.13-21.13-21.13Zm8.17,87.38c0,4.5-3.66,8.17-8.17,8.17H52.58c-4.5,0-8.17-3.67-8.17-8.17V67.2l37.58,42.63c4.55,5.16,11.12,8.13,18.01,8.13s13.45-2.96,18.01-8.13l37.57-42.63v65.93ZM54.23,58.71h91.55l-37.5,42.54c-2.09,2.38-5.11,3.74-8.28,3.74s-6.19-1.36-8.28-3.74L54.23,58.71Z"/></svg>