<?xml version="1.0" encoding="UTF-8"?><svg id="a" xmlns="http://www.w3.org/2000/svg" viewBox="0 0 200 200"><defs><style>.b{fill:#fff;}.c{fill:#8331a7;}</style></defs><circle class="c" cx="100" cy="100" r="100"/><g><path class="b" d="M166.32,72.53c-.31-7.08-1.46-11.96-3.1-16.18-1.69-4.48-4.3-8.49-7.71-11.82-3.33-3.39-7.37-6.02-11.8-7.68-4.24-1.64-9.09-2.79-16.17-3.1-7.14-.34-9.4-.42-27.51-.42s-20.37,.08-27.48,.39c-7.08,.31-11.96,1.46-16.17,3.1-4.48,1.69-8.49,4.3-11.83,7.71-3.39,3.33-6.02,7.37-7.68,11.8-1.64,4.25-2.79,9.09-3.1,16.17-.34,7.14-.42,9.4-.42,27.51s.08,20.37,.39,27.48c.31,7.08,1.46,11.96,3.1,16.18,1.69,4.48,4.32,8.49,7.71,11.82,3.33,3.39,7.37,6.02,11.8,7.68,4.25,1.64,9.09,2.79,16.18,3.1,7.11,.31,9.38,.39,27.48,.39s20.37-.08,27.48-.39c7.08-.31,11.96-1.46,16.17-3.1,8.96-3.46,16.05-10.55,19.51-19.51,1.64-4.25,2.79-9.09,3.1-16.18,.31-7.11,.39-9.38,.39-27.48s-.03-20.37-.34-27.48Zm-12.01,54.44c-.29,6.51-1.38,10.03-2.29,12.37-2.24,5.81-6.85,10.42-12.66,12.66-2.34,.91-5.89,2.01-12.37,2.29-7.03,.31-9.14,.39-26.93,.39s-19.93-.08-26.93-.39c-6.51-.29-10.03-1.38-12.37-2.29-2.89-1.07-5.52-2.76-7.66-4.98-2.21-2.16-3.91-4.77-4.98-7.66-.91-2.34-2.01-5.89-2.29-12.37-.31-7.03-.39-9.14-.39-26.93s.08-19.93,.39-26.93c.29-6.51,1.38-10.03,2.29-12.37,1.07-2.89,2.76-5.52,5-7.66,2.16-2.21,4.77-3.91,7.66-4.97,2.34-.91,5.89-2.01,12.37-2.29,7.03-.31,9.14-.39,26.93-.39s19.93,.08,26.93,.39c6.51,.29,10.03,1.38,12.37,2.29,2.89,1.07,5.52,2.76,7.66,4.97,2.21,2.16,3.91,4.77,4.98,7.66,.91,2.34,2.01,5.89,2.29,12.37,.31,7.03,.39,9.14,.39,26.93s-.08,19.87-.39,26.91Z"/><path class="b" d="M100.03,65.76c-18.91,0-34.25,15.34-34.25,34.25s15.34,34.25,34.25,34.25,34.25-15.34,34.25-34.25-15.34-34.25-34.25-34.25Zm0,56.47c-12.27,0-22.22-9.95-22.22-22.22s9.95-22.22,22.22-22.22,22.22,9.95,22.22,22.22-9.95,22.22-22.22,22.22Z"/><path class="b" d="M143.63,64.41c0,4.42-3.58,8-8,8s-8-3.58-8-8,3.58-8,8-8,8,3.58,8,8Z"/></g></svg>