<?xml version="1.0" encoding="UTF-8"?><svg id="a" xmlns="http://www.w3.org/2000/svg" viewBox="0 0 200 200"><defs><style>.b{fill:#fff;fill-rule:evenodd;}.c{fill:#8331a7;}</style></defs><circle class="c" cx="100" cy="100" r="100"/><path class="b" d="M150.64,47.14c-12.47-12.49-29.06-19.37-46.74-19.38-36.42,0-66.06,29.64-66.07,66.07,0,11.64,3.04,23.01,8.82,33.03l-9.37,34.24,35.03-9.19c9.65,5.26,20.52,8.04,31.57,8.04h.03c36.41,0,66.06-29.64,66.07-66.07,0-17.65-6.86-34.25-19.33-46.74Zm-46.74,101.65h-.02c-9.85,0-19.52-2.65-27.95-7.65l-2-1.19-20.78,5.45,5.55-20.26-1.31-2.08c-5.5-8.74-8.4-18.85-8.4-29.23,.01-30.28,24.65-54.91,54.94-54.91,14.67,0,28.46,5.72,38.82,16.1,10.37,10.38,16.07,24.18,16.07,38.85-.01,30.28-24.65,54.92-54.92,54.92Zm30.12-41.13c-1.65-.83-9.77-4.82-11.28-5.37-1.51-.55-2.61-.83-3.71,.83-1.1,1.65-4.26,5.37-5.23,6.47-.96,1.1-1.93,1.24-3.58,.41-1.65-.83-6.97-2.57-13.28-8.19-4.91-4.38-8.22-9.78-9.18-11.44-.96-1.65,0-2.46,.72-3.37,1.79-2.22,3.58-4.55,4.13-5.65,.55-1.1,.28-2.07-.14-2.89-.41-.83-3.71-8.95-5.09-12.26-1.34-3.22-2.7-2.78-3.72-2.83-.96-.05-2.06-.06-3.16-.06s-2.89,.41-4.4,2.07c-1.51,1.65-5.78,5.65-5.78,13.77s5.92,15.98,6.74,17.08c.83,1.1,11.64,17.78,28.2,24.93,3.94,1.7,7.01,2.72,9.41,3.48,3.96,1.26,7.55,1.08,10.4,.65,3.17-.47,9.77-3.99,11.14-7.85,1.38-3.86,1.38-7.16,.96-7.85-.41-.69-1.51-1.1-3.16-1.93Z"/></svg>