<?xml version="1.0" encoding="utf-8"?>
<!-- Generator: Adobe Illustrator 26.2.1, SVG Export Plug-In . SVG Version: 6.00 Build 0)  -->
<svg version="1.1" id="Capa_1" xmlns="http://www.w3.org/2000/svg" xmlns:xlink="http://www.w3.org/1999/xlink" x="0px" y="0px"
	 viewBox="0 0 188.74 188.74" style="enable-background:new 0 0 188.74 188.74;" xml:space="preserve">
<style type="text/css">
	.st0{fill:#8331A7;}
	.st1{fill:#FFFFFF;}
</style>
<g>
	<circle class="st0" cx="94.37" cy="94.37" r="94.37"/>
	<g>
		<path class="st1" d="M157.69,69.58c-2.38-2.38-5.54-3.69-8.91-3.69h-23.67V37.68c0-0.93-0.38-1.84-1.03-2.5
			c-0.66-0.66-1.57-1.04-2.5-1.04H67.16c-0.95,0-1.83,0.37-2.5,1.04c-0.66,0.66-1.04,1.57-1.04,2.5v28.21H39.95
			c-3.37,0-6.53,1.31-8.91,3.69s-3.69,5.55-3.7,8.91v36.28c0.01,3.37,1.32,6.53,3.7,8.91c2.38,2.38,5.54,3.69,8.91,3.69h23.67v23.68
			c0,0.94,0.37,1.83,1.04,2.5c0.67,0.67,1.55,1.03,2.5,1.03h54.42c0.93,0,1.84-0.37,2.5-1.03c0.66-0.67,1.03-1.56,1.03-2.5v-23.68
			h23.67c3.37,0,6.53-1.31,8.91-3.69c2.38-2.38,3.7-5.54,3.7-8.91V78.49C161.39,75.13,160.07,71.96,157.69,69.58z M70.69,41.21
			h47.35v24.68H70.69V41.21z M118.04,147.51H70.69v-38.27h47.35V147.51z M154.32,114.77c0,1.48-0.58,2.87-1.62,3.91
			c-1.05,1.05-2.44,1.62-3.91,1.63h-23.68v-11.07h5.54c1.25,0,2.43-0.68,3.06-1.77c0.63-1.09,0.63-2.45,0-3.54
			c-0.63-1.09-1.81-1.76-3.06-1.76H58.09c-1.26,0-2.43,0.67-3.06,1.76c-0.63,1.09-0.63,2.45,0,3.54c0.63,1.09,1.8,1.77,3.06,1.77
			h5.53v11.07H39.95c-1.48-0.01-2.87-0.58-3.91-1.63c-1.05-1.04-1.62-2.43-1.63-3.91V78.49c0.01-1.48,0.58-2.87,1.63-3.91
			c1.04-1.05,2.43-1.62,3.91-1.62h108.84c1.47,0,2.86,0.57,3.91,1.62c1.04,1.04,1.62,2.43,1.62,3.91V114.77z"/>
	</g>
	<path class="st1" d="M142.55,79.63h-7.67c-1.65,0-3,1.35-3,3c0,1.65,1.35,3,3,3h7.67c1.65,0,3-1.35,3-3
		C145.55,80.98,144.2,79.63,142.55,79.63z"/>
	<circle class="st1" cx="126.67" cy="82.63" r="3"/>
	<g>
		<g>
			<circle class="st1" cx="82.24" cy="137.24" r="4.87"/>
			<circle class="st1" cx="82.24" cy="111.7" r="4.87"/>
			<circle class="st1" cx="82.24" cy="124.47" r="4.87"/>
		</g>
		<g>
			<circle class="st1" cx="94.36" cy="137.24" r="4.87"/>
			<circle class="st1" cx="94.36" cy="111.7" r="4.87"/>
			<circle class="st1" cx="94.36" cy="124.47" r="4.87"/>
		</g>
		<g>
			<circle class="st1" cx="106.49" cy="137.24" r="4.87"/>
			<circle class="st1" cx="106.49" cy="111.7" r="4.87"/>
			<circle class="st1" cx="106.49" cy="124.47" r="4.87"/>
		</g>
	</g>
</g>
</svg>
