<?xml version="1.0" encoding="utf-8"?>
<!-- Generator: Adobe Illustrator 26.2.1, SVG Export Plug-In . SVG Version: 6.00 Build 0)  -->
<svg version="1.1" id="Capa_1" xmlns="http://www.w3.org/2000/svg" xmlns:xlink="http://www.w3.org/1999/xlink" x="0px" y="0px"
	 viewBox="0 0 766.29 199.53" style="enable-background:new 0 0 766.29 199.53;" xml:space="preserve">
<style type="text/css">
	.st0{fill:#CC3362;}
	.st1{fill:#636569;}
</style>
<g>
	<g>
		<g>
			<path class="st0" d="M390.32,127.62c-1.57,3.64-3.91,9.32-4.5,10.54c-0.98,1.82-3.13,3.85-7.63,3.85h-31.31V4.13
				c0.2-2.23,1.96-4.06,4.3-4.06h36.59l-4.7,10.54c-0.78,1.83-2.94,4.06-7.44,4.06H364.3c-1.96,0-3.33,1.42-3.33,3.45V60.3
				c0,0,0,16.22,0,18.04v49.27H390.32z"/>
			<path class="st0" d="M425.92,36.47v-16.1c0-4.37-3.26-7.75-7.29-7.75c-4.03,0-7.29,3.38-7.29,7.75v13.32
				c0,8.15,5.94,18.68,5.94,18.68l16.5,32.2c6.72,12.72,6.14,22.07,6.14,22.07v17.69c0,9.74-7.67,17.69-17.26,17.69h-8.63
				c-9.21-0.39-16.5-8.15-16.69-17.69v-14.31c0-4.57,2.11-6.76,3.84-7.75c1.15-0.39,6.72-2.98,10.17-4.57v24.25
				c0,4.17,3.26,7.55,7.29,7.55c4.03,0,7.29-3.38,7.29-7.75v-15.9c0-8.15-5.95-18.89-5.95-18.89l-16.5-32
				c-6.71-12.72-6.14-22.07-6.14-22.07V18.58c0-9.74,7.67-18.48,17.26-18.48h8.63c9.21,0.2,16.69,8.94,16.69,18.48v5.37
				c0,4.57-2.11,6.75-3.84,7.75C434.93,32.29,429.56,34.88,425.92,36.47z"/>
			<path class="st0" d="M504.18,10.62c-0.78,1.83-2.93,3.85-7.44,3.85h-10.96c-1.96,0-3.32,1.62-3.52,3.45v124.09h-9.98
				c-3.33,0-3.91-2.03-3.91-3.04V14.47h-19.77V4.54c0-2.43,1.96-4.46,4.3-4.46h55.96L504.18,10.62z"/>
			<path class="st0" d="M561.62,124.67c0,9.68-7.59,17.14-16.73,17.34h-10.7c-9.54,0-17.32-7.46-17.32-17.34V4.11
				c0.2-2.21,1.95-4.03,4.09-4.03h9.92v121.98c0,4.23,3.11,7.66,7.2,7.66h2.14c4.09,0,7.39-3.42,7.39-7.66V0.08h14.01V124.67z"/>
			<path class="st0" d="M606.97,0.08c9.59,0,17.22,7.9,17.42,17.84v106.25c-0.2,9.94-7.83,17.84-17.42,17.84h-27.2V0.08H606.97z
				 M610.49,21.98c0-5.27-3.52-7.3-7.44-7.3h-9.19v112.94h9.19c3.91,0,7.44-2.03,7.44-7.51V21.98z"/>
			<path class="st0" d="M654.14,0.1c4.11,0,5.67,3.24,5.67,5.68v136.24h-9.98c-3.33,0-3.91-2.03-4.11-3.04V0.1H654.14z"/>
			<path class="st0" d="M707.03,0.06c9.21,0.39,16.69,8.15,16.69,17.69v106.73c-0.19,9.54-7.48,17.1-16.69,17.49h-10.55
				c-9.4,0-17.07-7.95-17.26-17.49V17.74c0-9.74,7.67-17.69,17.26-17.69H707.03z M702.43,129.45c4.03,0,7.29-3.38,7.29-7.75V20.32
				c0-4.37-3.26-7.75-7.29-7.75h-2.11c-4.03,0.2-7.29,3.58-7.29,7.75V121.7c0,4.17,3.26,7.55,7.29,7.75H702.43z"/>
			<path class="st0" d="M98.14,142.01H82.69L70.36,44.28l-12.32,97.73H42.57L63.31,0.08h7.63c5.87,0,6.85,3.85,7.44,7.7
				L98.14,142.01z"/>
			<path class="st0" d="M157.19,124.67c0,9.68-7.59,17.14-16.73,17.34h-10.7c-9.53,0-17.31-7.46-17.31-17.34V4.11
				c0.19-2.21,1.95-4.03,4.08-4.03h9.93v121.98c0,4.23,3.11,7.66,7.2,7.66h2.14c4.08,0,7.39-3.42,7.39-7.66V0.08h14.01V124.67z"/>
			<path class="st0" d="M215.33,142.01c0,0,0,0-0.06-0.06c-0.28-0.41-1.41-2.05-1.64-2.81c-0.11-0.29-0.23-0.99-0.34-1.64
				c-0.11-0.76-0.17-1.46-0.17-1.46V92.89c0-4.87,0.23-9.6-3.29-13.83c-1.54-1.85-4.07-4.26-9.39-4.72
				c4.94-0.46,7.97-2.77,9.96-5.48c2.62-3.58,2.73-7.53,2.73-11.59V17.95c0-9.94-7.85-17.84-17.22-17.84h-25.63v141.9h14.06V81h7.45
				c3.73,0,7.23,2.22,7.23,9.12v51.88H215.33z M191.79,67.2h-7.45V13.68h7.45c3.73,0,7.23,2.05,7.23,7.31v38.08
				C199.02,65.56,195.52,67.2,191.79,67.2z"/>
			<path class="st0" d="M282.62,141.93h-15.46L254.84,44.2l-12.32,97.73h-15.46L247.79,0h7.63c5.87,0,6.85,3.85,7.44,7.7
				L282.62,141.93z"/>
		</g>
	</g>
	<path class="st0" d="M766.29,99.44c-78.47-20.33-158.75-30.88-239.45-29.39c-48.21,1.45-96.75,4.67-144.6,10.75
		c-46.52,5.4-97.68,16.99-144.37,21.46c-32.61,2.88-65.82,2.13-98.21-2.48C91.24,92.92,43.91,77.98,0,56.87
		c30.38,11.1,61.37,20.55,93.1,26.63c63.08,13,128.1,11.62,191.13-0.93c87.64-17.18,177.51-27.07,267.01-24.44
		C624.51,61.14,697.58,74.76,766.29,99.44L766.29,99.44z"/>
	<g>
		<path class="st1" d="M70.7,170.23h11.51c3.02,0,5.7,0.62,8.04,1.87c2.34,1.25,4.16,2.97,5.47,5.17c1.3,2.2,1.95,4.7,1.95,7.5
			c0,2.8-0.65,5.3-1.95,7.5c-1.3,2.2-3.12,3.93-5.47,5.18c-2.34,1.25-5.02,1.87-8.04,1.87H70.7V170.23z M82.05,197.41
			c2.69,0,5.06-0.53,7.11-1.6c2.05-1.07,3.63-2.56,4.74-4.47c1.11-1.91,1.66-4.1,1.66-6.57c0-2.47-0.55-4.66-1.66-6.57
			c-1.11-1.91-2.69-3.4-4.74-4.47c-2.05-1.07-4.42-1.6-7.11-1.6h-9.23v25.27H82.05z"/>
		<path class="st1" d="M108.44,170.23h2.12v29.09h-2.12V170.23z"/>
		<path class="st1" d="M125.67,198.43c-1.93-0.73-3.43-1.68-4.51-2.85l0.96-1.58c1.02,1.08,2.4,1.96,4.14,2.64
			c1.73,0.68,3.55,1.02,5.47,1.02c2.77,0,4.86-0.53,6.28-1.58c1.41-1.05,2.12-2.43,2.12-4.12c0-1.3-0.37-2.34-1.12-3.11
			c-0.75-0.78-1.68-1.37-2.78-1.79c-1.11-0.42-2.6-0.85-4.49-1.29c-2.13-0.53-3.84-1.04-5.13-1.54c-1.29-0.5-2.38-1.27-3.28-2.31
			c-0.9-1.04-1.35-2.43-1.35-4.18c0-1.41,0.37-2.71,1.12-3.88s1.89-2.11,3.43-2.81c1.54-0.69,3.46-1.04,5.76-1.04
			c1.61,0,3.19,0.24,4.74,0.71c1.55,0.47,2.89,1.11,4.03,1.91l-0.79,1.7c-1.16-0.8-2.45-1.41-3.84-1.83
			c-1.4-0.42-2.78-0.62-4.14-0.62c-2.69,0-4.72,0.54-6.11,1.62c-1.39,1.08-2.08,2.48-2.08,4.2c0,1.3,0.37,2.34,1.12,3.12
			c0.75,0.78,1.68,1.37,2.78,1.79c1.11,0.42,2.62,0.86,4.53,1.33c2.13,0.53,3.84,1.04,5.11,1.54c1.27,0.5,2.36,1.25,3.26,2.27
			c0.9,1.01,1.35,2.37,1.35,4.09c0,1.41-0.38,2.7-1.14,3.87c-0.76,1.16-1.93,2.09-3.51,2.79c-1.58,0.69-3.52,1.04-5.82,1.04
			C129.62,199.53,127.59,199.16,125.67,198.43z"/>
		<path class="st1" d="M172.91,197.41v1.91h-20.08v-29.09h19.45v1.91h-17.33v11.47h15.5v1.87h-15.5v11.93H172.91z"/>
		<path class="st1" d="M207.74,170.23v29.09h-1.75l-19.83-25.27v25.27h-2.12v-29.09h1.79l19.78,25.27v-25.27H207.74z M196.99,167.09
			c-0.49-0.29-0.99-0.69-1.52-1.18c-0.47-0.42-0.87-0.73-1.18-0.94c-0.32-0.21-0.66-0.31-1.02-0.31c-0.64,0-1.15,0.24-1.54,0.73
			c-0.39,0.49-0.61,1.14-0.67,1.97h-1.37c0.06-1.25,0.39-2.25,1-3.01c0.61-0.76,1.43-1.14,2.45-1.14c0.61,0,1.16,0.15,1.64,0.44
			c0.49,0.29,0.99,0.69,1.52,1.18c0.47,0.42,0.87,0.73,1.18,0.94c0.32,0.21,0.66,0.31,1.02,0.31c0.64,0,1.15-0.24,1.54-0.71
			c0.39-0.47,0.61-1.11,0.67-1.91h1.37c-0.06,1.22-0.39,2.2-1.02,2.95c-0.62,0.75-1.43,1.12-2.43,1.12
			C198.02,167.53,197.48,167.38,196.99,167.09z"/>
		<path class="st1" d="M225.9,197.6c-2.3-1.29-4.11-3.06-5.42-5.3c-1.32-2.24-1.97-4.75-1.97-7.52s0.66-5.28,1.97-7.52
			c1.32-2.24,3.12-4.01,5.42-5.3c2.3-1.29,4.88-1.93,7.73-1.93c2.85,0,5.43,0.64,7.73,1.91c2.3,1.27,4.11,3.03,5.42,5.28
			c1.32,2.25,1.97,4.77,1.97,7.57c0,2.8-0.66,5.32-1.97,7.56c-1.32,2.24-3.12,4-5.42,5.28c-2.3,1.27-4.88,1.91-7.73,1.91
			C230.78,199.53,228.2,198.89,225.9,197.6z M240.24,195.92c1.97-1.11,3.52-2.64,4.66-4.59c1.14-1.95,1.7-4.13,1.7-6.54
			c0-2.41-0.57-4.59-1.7-6.55c-1.14-1.95-2.69-3.48-4.66-4.59c-1.97-1.11-4.17-1.66-6.61-1.66c-2.44,0-4.65,0.55-6.63,1.66
			c-1.98,1.11-3.54,2.64-4.68,4.59c-1.14,1.95-1.7,4.14-1.7,6.55c0,2.41,0.57,4.59,1.7,6.54c1.14,1.95,2.69,3.49,4.68,4.59
			c1.98,1.11,4.19,1.66,6.63,1.66C236.07,197.58,238.27,197.02,240.24,195.92z"/>
		<path class="st1" d="M282.59,189.3v10.02h-2.12V189.3l-11.72-19.08h2.33l10.52,17.13l10.52-17.13h2.2L282.59,189.3z"/>
		<path class="st1" d="M321.68,197.62c-2.29-1.27-4.09-3.03-5.4-5.28c-1.32-2.25-1.97-4.76-1.97-7.56c0-2.8,0.66-5.32,1.97-7.57
			c1.32-2.24,3.12-4,5.4-5.28c2.29-1.27,4.86-1.91,7.71-1.91c2.11,0,4.05,0.34,5.82,1.02c1.77,0.68,3.28,1.68,4.53,3.01l-1.33,1.37
			c-2.33-2.3-5.31-3.45-8.94-3.45c-2.44,0-4.66,0.55-6.65,1.66c-2,1.11-3.56,2.64-4.7,4.59c-1.14,1.95-1.7,4.14-1.7,6.55
			c0,2.41,0.57,4.59,1.7,6.54c1.14,1.95,2.7,3.49,4.7,4.59c1.99,1.11,4.21,1.66,6.65,1.66c3.6,0,6.58-1.16,8.94-3.49l1.33,1.37
			c-1.25,1.33-2.76,2.34-4.55,3.03c-1.79,0.69-3.72,1.04-5.8,1.04C326.54,199.53,323.97,198.89,321.68,197.62z"/>
		<path class="st1" d="M354.25,197.6c-2.3-1.29-4.11-3.06-5.42-5.3c-1.32-2.24-1.97-4.75-1.97-7.52s0.66-5.28,1.97-7.52
			c1.32-2.24,3.12-4.01,5.42-5.3c2.3-1.29,4.88-1.93,7.73-1.93s5.43,0.64,7.73,1.91c2.3,1.27,4.11,3.03,5.42,5.28
			c1.32,2.25,1.97,4.77,1.97,7.57c0,2.8-0.66,5.32-1.97,7.56c-1.32,2.24-3.12,4-5.42,5.28c-2.3,1.27-4.88,1.91-7.73,1.91
			S356.54,198.89,354.25,197.6z M368.58,195.92c1.97-1.11,3.52-2.64,4.66-4.59c1.14-1.95,1.7-4.13,1.7-6.54
			c0-2.41-0.57-4.59-1.7-6.55c-1.14-1.95-2.69-3.48-4.66-4.59c-1.97-1.11-4.17-1.66-6.61-1.66c-2.44,0-4.65,0.55-6.63,1.66
			c-1.98,1.11-3.54,2.64-4.68,4.59c-1.14,1.95-1.7,4.14-1.7,6.55c0,2.41,0.57,4.59,1.7,6.54c1.14,1.95,2.69,3.49,4.68,4.59
			c1.98,1.11,4.19,1.66,6.63,1.66C364.41,197.58,366.62,197.02,368.58,195.92z"/>
		<path class="st1" d="M415.39,199.32l-0.04-24.9l-12.18,21.03h-1.04l-12.18-20.95v24.81h-2.08v-29.09h1.79l13.01,22.48l13.01-22.48
			h1.75l0.04,29.09H415.39z"/>
		<path class="st1" d="M433.82,196.33c-2.04-2.13-3.05-5.25-3.05-9.35v-16.75h2.12v16.67c0,3.57,0.82,6.25,2.45,8.02
			c1.64,1.77,4,2.66,7.11,2.66c3.08,0,5.43-0.89,7.07-2.66c1.63-1.77,2.45-4.45,2.45-8.02v-16.67h2.12v16.75
			c0,4.1-1.03,7.22-3.08,9.35c-2.05,2.13-4.92,3.2-8.6,3.2S435.86,198.47,433.82,196.33z"/>
		<path class="st1" d="M491.07,170.23v29.09h-1.75l-19.83-25.27v25.27h-2.12v-29.09h1.79l19.78,25.27v-25.27H491.07z"/>
		<path class="st1" d="M504.62,170.23h2.12v29.09h-2.12V170.23z"/>
		<path class="st1" d="M524.88,197.62c-2.29-1.27-4.09-3.03-5.4-5.28c-1.32-2.25-1.97-4.76-1.97-7.56c0-2.8,0.66-5.32,1.97-7.57
			c1.32-2.24,3.12-4,5.4-5.28c2.29-1.27,4.86-1.91,7.71-1.91c2.11,0,4.05,0.34,5.82,1.02c1.77,0.68,3.28,1.68,4.53,3.01l-1.33,1.37
			c-2.33-2.3-5.31-3.45-8.94-3.45c-2.44,0-4.66,0.55-6.65,1.66c-2,1.11-3.56,2.64-4.7,4.59c-1.14,1.95-1.7,4.14-1.7,6.55
			c0,2.41,0.57,4.59,1.7,6.54c1.14,1.95,2.7,3.49,4.7,4.59c1.99,1.11,4.21,1.66,6.65,1.66c3.6,0,6.58-1.16,8.94-3.49l1.33,1.37
			c-1.25,1.33-2.76,2.34-4.55,3.03c-1.79,0.69-3.72,1.04-5.8,1.04C529.74,199.53,527.17,198.89,524.88,197.62z"/>
		<path class="st1" d="M570.67,191.13h-16.88l-3.7,8.19h-2.29l13.38-29.09h2.12l13.38,29.09h-2.29L570.67,191.13z M569.88,189.35
			l-7.65-16.79l-7.61,16.79H569.88z"/>
		<path class="st1" d="M589.56,197.62c-2.29-1.27-4.09-3.03-5.4-5.28c-1.32-2.25-1.97-4.76-1.97-7.56c0-2.8,0.66-5.32,1.97-7.57
			c1.32-2.24,3.12-4,5.4-5.28c2.28-1.27,4.86-1.91,7.71-1.91c2.11,0,4.05,0.34,5.82,1.02c1.77,0.68,3.28,1.68,4.53,3.01l-1.33,1.37
			c-2.33-2.3-5.31-3.45-8.94-3.45c-2.44,0-4.65,0.55-6.65,1.66c-1.99,1.11-3.56,2.64-4.7,4.59s-1.7,4.14-1.7,6.55
			c0,2.41,0.57,4.59,1.7,6.54s2.7,3.49,4.7,4.59c2,1.11,4.21,1.66,6.65,1.66c3.6,0,6.58-1.16,8.94-3.49l1.33,1.37
			c-1.25,1.33-2.76,2.34-4.55,3.03c-1.79,0.69-3.72,1.04-5.8,1.04C594.41,199.53,591.84,198.89,589.56,197.62z"/>
		<path class="st1" d="M618.13,170.23h2.12v29.09h-2.12V170.23z"/>
		<path class="st1" d="M638.42,197.6c-2.3-1.29-4.11-3.06-5.43-5.3c-1.32-2.24-1.97-4.75-1.97-7.52s0.66-5.28,1.97-7.52
			c1.32-2.24,3.12-4.01,5.43-5.3c2.3-1.29,4.88-1.93,7.73-1.93c2.85,0,5.43,0.64,7.73,1.91c2.3,1.27,4.11,3.03,5.43,5.28
			c1.31,2.25,1.97,4.77,1.97,7.57c0,2.8-0.66,5.32-1.97,7.56c-1.32,2.24-3.12,4-5.43,5.28c-2.3,1.27-4.88,1.91-7.73,1.91
			C643.29,199.53,640.72,198.89,638.42,197.6z M652.76,195.92c1.97-1.11,3.52-2.64,4.65-4.59s1.7-4.13,1.7-6.54
			c0-2.41-0.57-4.59-1.7-6.55s-2.69-3.48-4.65-4.59c-1.97-1.11-4.17-1.66-6.61-1.66c-2.44,0-4.65,0.55-6.63,1.66
			c-1.98,1.11-3.54,2.64-4.68,4.59s-1.7,4.14-1.7,6.55c0,2.41,0.57,4.59,1.7,6.54s2.7,3.49,4.68,4.59c1.98,1.11,4.19,1.66,6.63,1.66
			C648.58,197.58,650.79,197.02,652.76,195.92z M649.55,162.95h2.99l-6.53,4.91h-2.24L649.55,162.95z"/>
		<path class="st1" d="M695.73,170.23v29.09h-1.75l-19.83-25.27v25.27h-2.12v-29.09h1.79l19.78,25.27v-25.27H695.73z"/>
	</g>
</g>
</svg>
