<?xml version="1.0" encoding="utf-8"?>
<!-- Generator: Adobe Illustrator 26.2.1, SVG Export Plug-In . SVG Version: 6.00 Build 0)  -->
<svg version="1.1" id="Capa_1" xmlns="http://www.w3.org/2000/svg" xmlns:xlink="http://www.w3.org/1999/xlink" x="0px" y="0px"
	 viewBox="0 0 300 300" style="enable-background:new 0 0 300 300;" xml:space="preserve">
<style type="text/css">
	.st0{fill:#CC3362;}
	.st1{fill:#FFFFFF;}
</style>
<g>
	<circle class="st0" cx="150" cy="150" r="150"/>
	<g>
		<path class="st1" d="M225.56,224.17c-2.07,4.81-5.17,12.31-5.94,13.93c-1.3,2.41-4.14,5.09-10.09,5.09h-41.36V61.03
			c0.26-2.94,2.59-5.36,5.69-5.36h48.35L216,69.61c-1.03,2.41-3.88,5.36-9.82,5.36h-14.99c-2.59,0-4.4,1.87-4.4,4.56v55.72
			c0,0,0,21.43,0,23.84v65.1H225.56z"/>
		<path class="st1" d="M148.43,243.19h-20.42l-16.29-129.12L95.44,243.19H75.01l27.4-187.51h10.09c7.76,0,9.04,5.09,9.82,10.18
			L148.43,243.19z"/>
		<path class="st1" d="M262.49,186.93c-17.09-16.92-42.73-29.32-70.9-25.67c-14.06,1.82-28.5,8.85-41.31,16.61
			c-12.6,7.63-19.83,8.78-33.54,11.46c-9.57,1.72-28.08-1.7-37.46-4.88c-28.02-9.51-41.77-35.01-41.77-35.01s17.21,18.83,34.89,23.8
			c19.34,5.44,41.93,5.91,58.2-3.92c24.54-14.83,35.68-24.18,65.69-22.85C240.52,148.43,255.79,178.92,262.49,186.93L262.49,186.93z
			"/>
	</g>
</g>
</svg>
