<?xml version="1.0" encoding="utf-8"?>
<!-- Generator: Adobe Illustrator 26.2.1, SVG Export Plug-In . SVG Version: 6.00 Build 0)  -->
<svg version="1.1" id="Capa_1" xmlns="http://www.w3.org/2000/svg" xmlns:xlink="http://www.w3.org/1999/xlink" x="0px" y="0px"
	 viewBox="0 0 188.74 188.74" style="enable-background:new 0 0 188.74 188.74;" xml:space="preserve">
<style type="text/css">
	.st0{fill:#CC3362;}
	.st1{fill:#FFFFFF;}
	.st2{fill:#8331A7;}
	.st3{fill:#8A1E41;}
	.st4{fill:#D79DD7;}
</style>
<g>
	<circle class="st4" cx="94.37" cy="94.37" r="94.37"/>
	<g>
		<g>
			<path class="st1" d="M155.71,44.09c0-3.05-1.24-5.82-3.24-7.82s-4.77-3.24-7.82-3.24H44.08c-6.09,0-11.05,4.96-11.05,11.06
				v100.57c0,6.09,4.96,11.05,11.05,11.05h100.57c6.1,0,11.06-4.96,11.06-11.05c0-14.16-0.07-20.43-0.1-23.11
				c0-0.41-0.01-0.75-0.01-1.03h0.11V44.09z M148.68,144.66c0,2.22-1.81,4.03-4.03,4.03H44.08c-2.22,0-4.02-1.81-4.02-4.03v-19.12
				h108.62V144.66z M148.68,118.51H40.06V60.17h108.62V118.51z M148.68,53.15H40.06v-9.06c0-2.22,1.8-4.03,4.03-4.03h100.56
				c2.23,0,4.03,1.81,4.03,4.03V53.15z"/>
		</g>
		<g>
			<path class="st1" d="M94.37,63.7c-14.14,0-25.64,11.51-25.64,25.64c0,14.14,11.5,25.65,25.64,25.65
				c14.14,0,25.64-11.51,25.64-25.65C120.01,75.21,108.51,63.7,94.37,63.7z M94.37,108.96c-10.82,0-19.61-8.8-19.61-19.61
				c0-10.82,8.79-19.62,19.61-19.62c10.81,0,19.61,8.8,19.61,19.62C113.98,100.16,105.18,108.96,94.37,108.96z"/>
		</g>
		<g>
			<path class="st1" d="M53.19,134.05v6.12c-0.85-0.01-1.38-0.02-1.52-0.04c-0.75-0.08-3.06-0.35-3.06-3.01
				c0-2.79,2.56-2.99,3.41-3.05C52.14,134.06,52.54,134.05,53.19,134.05z"/>
			<path class="st1" d="M140.06,137.12c0,1.49-1.01,3.01-2.95,3.01c-2.26,0.01-38.07,0.11-62.61,0.11c-6.79,0-12.71-0.01-16.83-0.03
				v-6.19c18.59-0.06,76.56,0.07,79.44,0.08C139.05,134.1,140.06,135.62,140.06,137.12z"/>
		</g>
		<g>
			<path class="st1" d="M86.83,100.4c0.5,0.25,0.75,0.25,1.26,0.25c0.5,0,0.75,0,1.01-0.25l17.6-8.8c1.76-1.01,1.76-3.52,0-4.53
				l-17.6-8.8c-1.76-0.75-3.52,0.5-3.52,2.26C86.07,97.64,84.56,98.89,86.83,100.4L86.83,100.4z M90.6,84.56l9.55,4.78l-9.55,4.78
				V84.56z"/>
		</g>
		<g>
			<path class="st1" d="M50.82,46.6c0,1.84-1.5,3.34-3.34,3.34c-1.83,0-3.33-1.5-3.33-3.34c0-1.83,1.5-3.33,3.33-3.33
				C49.32,43.27,50.82,44.77,50.82,46.6z"/>
		</g>
		<g>
			<path class="st1" d="M59.34,46.6c0,1.84-1.5,3.34-3.34,3.34s-3.33-1.5-3.33-3.34c0-1.83,1.49-3.33,3.33-3.33
				S59.34,44.77,59.34,46.6z"/>
		</g>
		<g>
			<path class="st1" d="M67.85,46.6c0,1.84-1.49,3.34-3.33,3.34s-3.33-1.5-3.33-3.34c0-1.83,1.49-3.33,3.33-3.33
				S67.85,44.77,67.85,46.6z"/>
		</g>
		<g>
			<path class="st1" d="M57.67,131.31v11.61c0,1.23-1.01,2.24-2.24,2.24c-1.24,0-2.24-1.01-2.24-2.24v-11.61
				c0-1.23,1-2.24,2.24-2.24C56.66,129.07,57.67,130.08,57.67,131.31z"/>
		</g>
		<g>
			<g>
				<path class="st1" d="M142.41,48.54c0.73,0.73,0.73,1.91,0,2.64c-0.36,0.36-0.84,0.54-1.32,0.54c-0.47,0-0.95-0.18-1.31-0.54
					l-1.94-1.94l-1.94,1.94c-0.37,0.36-0.84,0.54-1.32,0.54s-0.95-0.18-1.32-0.54c-0.72-0.73-0.72-1.91,0-2.64l1.94-1.94l-1.94-1.94
					c-0.72-0.72-0.72-1.9,0-2.63c0.73-0.73,1.91-0.73,2.64,0l1.94,1.94l1.94-1.94c0.72-0.73,1.91-0.73,2.63,0
					c0.73,0.73,0.73,1.91,0,2.63l-1.94,1.94L142.41,48.54z"/>
			</g>
		</g>
	</g>
</g>
</svg>
