<?xml version="1.0" encoding="utf-8"?>
<!-- Generator: Adobe Illustrator 26.2.1, SVG Export Plug-In . SVG Version: 6.00 Build 0)  -->
<svg version="1.1" id="Capa_1" xmlns="http://www.w3.org/2000/svg" xmlns:xlink="http://www.w3.org/1999/xlink" x="0px" y="0px"
	 viewBox="0 0 47.79 9.23" style="enable-background:new 0 0 47.79 9.23;" xml:space="preserve">
<style type="text/css">
	.st0{fill:#E58CA9;}
</style>
<g id="Grupo_84_00000086684459411698595320000010546852952134622399_" transform="translate(0 0)">
	<path id="Trazado_99_00000065771146081457358920000011627494612594986650_" class="st0" d="M0,8.62c3.92-4.03,9.47-6.04,15.06-5.45
		c3.13,0.58,6.12,1.78,8.77,3.53c2.68,1.62,4.21,1.86,7.12,2.43c2.03,0.37,5.97-0.36,7.96-1.04c3.72-1.39,6.85-4.02,8.87-7.44
		c0,0-3.65,4-7.41,5.06c-4.11,1.15-8.91,1.26-12.36-0.83c-5.21-3.15-7.58-5.14-13.95-4.85C4.67,0.44,1.42,6.92,0,8.62"/>
</g>
</svg>
