<?xml version="1.0" encoding="utf-8"?>
<!-- Generator: Adobe Illustrator 26.2.1, SVG Export Plug-In . SVG Version: 6.00 Build 0)  -->
<svg version="1.1" id="Capa_1" xmlns="http://www.w3.org/2000/svg" xmlns:xlink="http://www.w3.org/1999/xlink" x="0px" y="0px"
	 viewBox="0 0 47.79 9.23" style="enable-background:new 0 0 47.79 9.23;" xml:space="preserve">
<style type="text/css">
	.st0{fill:#E58CA9;}
</style>
<g id="Grupo_84" transform="translate(0 0)">
	<path id="Trazado_99" class="st0" d="M47.79,8.62c-3.92-4.03-9.47-6.04-15.06-5.45c-3.13,0.58-6.12,1.78-8.77,3.53
		c-2.68,1.62-4.21,1.86-7.12,2.43C14.8,9.5,10.86,8.77,8.87,8.09C5.15,6.7,2.02,4.08,0,0.66c0,0,3.65,4,7.41,5.06
		c4.11,1.15,8.91,1.26,12.36-0.83c5.21-3.15,7.58-5.14,13.95-4.85C43.12,0.44,46.37,6.92,47.79,8.62"/>
</g>
</svg>
